# xmcd CD database file
#
# Track frame offsets:
#	150
#	3404
#	9322
#	15604
#	22402
#	30384
#	40876
#	52059
#	62388
#	72654
#	81599
#	91492
#	101175
#	110117
#	121753
#	129308
#	137764
#	145797
#	153458
#	162396
#	168356
#	174645
#	181477
#	189497
#	200045
#	211243
#	221600
#	231899
#	240892
#	250853
#	260577
#	269543
#	281207
#	288809
#	297336
#	305486
#	313194
#
# Disc length: 4294 seconds
#
# Revision: 0
# Processed by: cddbd v1.5.2PL0 Copyright (c) Steve Scherf et al.
# Submitted via: CDex 1.77
#
DISCID=2e10c425
DTITLE=Mike Carubia and Jeff Jarvis - Effective Etudes For Jazz-tp
DYEAR=2004
DGENRE=Jazz
TTITLE0=Tuning Note (Concert A, Bb)
TTITLE1=Keep Smiling
TTITLE2=Moonmen
TTITLE3=Minor Is Finer
TTITLE4=Baggage Claim Blues
TTITLE5=Dido
TTITLE6=Isle Of Melon
TTITLE7=It's From Heaven
TTITLE8=The Moon Is High
TTITLE9=Blue Note Blues
TTITLE10=Softly
TTITLE11=You're The Last One
TTITLE12=I Got Yer Rhythm!
TTITLE13=The Sum Of Your Attributes
TTITLE14=This Is Love
TTITLE15=My Glowing Moment
TTITLE16=Sweet Georgia
TTITLE17=It's Nobody For Me
TTITLE18=I Got Rid Of 'Em
TTITLE19=Keep Smiling PB
TTITLE20=Moonmen PB
TTITLE21=Minor Is Finer PB
TTITLE22=Baggage Claim Blues PB
TTITLE23=Dido PB
TTITLE24=Isle Of Melon PB
TTITLE25=It's From Heaven PB
TTITLE26=The Moon Is High PB
TTITLE27=Blue Note Blues PB
TTITLE28=Softly PB
TTITLE29=You're The Last One PB
TTITLE30=I Got Yer Rhythm! PB
TTITLE31=The Sum Of Your Attributes PB
TTITLE32=This Is Love PB
TTITLE33=My Glowing Moment PB
TTITLE34=Sweet Georgia PB
TTITLE35=It's Nobody For Me PB
TTITLE36=I Got Rid Of 'Em PB
EXTD=YEAR: 2004
EXTT0=
EXTT1=
EXTT2=
EXTT3=
EXTT4=
EXTT5=
EXTT6=
EXTT7=
EXTT8=
EXTT9=
EXTT10=
EXTT11=
EXTT12=
EXTT13=
EXTT14=
EXTT15=
EXTT16=
EXTT17=
EXTT18=
EXTT19=
EXTT20=
EXTT21=
EXTT22=
EXTT23=
EXTT24=
EXTT25=
EXTT26=
EXTT27=
EXTT28=
EXTT29=
EXTT30=
EXTT31=
EXTT32=
EXTT33=
EXTT34=
EXTT35=
EXTT36=
PLAYORDER=
